<?xml version="1.0" encoding="UTF-8"?>
<svg version="1.1" xmlns="http://www.w3.org/2000/svg" width="174" height="26">
<path d="M0 0 C4.95 0 9.9 0 15 0 C15 1.32 15 2.64 15 4 C15.7425 4.2475 16.485 4.495 17.25 4.75 C20.36067153 6.1639416 21.98183429 7.2343655 24 10 C24.72632441 15.91435595 24.72632441 15.91435595 22.86938477 18.68994141 C20.13460721 20.60646438 17.96635172 20.38864033 14.65234375 20.3984375 C13.40775391 20.40230469 12.16316406 20.40617187 10.88085938 20.41015625 C8.92889648 20.39275391 8.92889648 20.39275391 6.9375 20.375 C5.63232422 20.38660156 4.32714844 20.39820312 2.98242188 20.41015625 C1.73912109 20.40628906 0.49582031 20.40242188 -0.78515625 20.3984375 C-1.92863525 20.39505371 -3.07211426 20.39166992 -4.25024414 20.38818359 C-5.15766357 20.26008301 -6.06508301 20.13198242 -7 20 C-9.29013653 16.5647952 -9.17842973 15.014669 -9 11 C-6.525 11.495 -6.525 11.495 -4 12 C-3.67 12.99 -3.34 13.98 -3 15 C-2.34 15 -1.68 15 -1 15 C-0.938125 14.443125 -0.87625 13.88625 -0.8125 13.3125 C0.33373872 10.05012827 2.49390197 8.31332126 5 6 C2.525 5.01 2.525 5.01 0 4 C0 2.68 0 1.36 0 0 Z M12 6 C10.68 7.65 9.36 9.3 8 11 C10.31 11 12.62 11 15 11 C14.67 12.65 14.34 14.3 14 16 C15.32 16 16.64 16 18 16 C18.33 15.01 18.66 14.02 19 13 C17.27773504 9.75150023 17.27773504 9.75150023 14 9 C13.34 8.01 12.68 7.02 12 6 Z " fill="#5D87FF" transform="translate(25,6)"/>
<path d="M0 0 C3.63 0 7.26 0 11 0 C11.33 0.66 11.66 1.32 12 2 C12.66 1.34 13.32 0.68 14 0 C16.05859375 -0.30078125 16.05859375 -0.30078125 18.4375 -0.3125 C19.61119141 -0.33763672 19.61119141 -0.33763672 20.80859375 -0.36328125 C23.50600935 0.0838839 24.38327233 0.82720039 26 3 C26.1875 5.6875 26.1875 5.6875 26 8 C21.545 8.495 21.545 8.495 17 9 C19.97 9 22.94 9 26 9 C25.67 10.65 25.34 12.3 25 14 C15.96551724 14.62068966 15.96551724 14.62068966 12.375 12.3125 C10.78038183 9.63064217 10.65901057 8.06890491 11 5 C9.02 5 7.04 5 5 5 C5 7.97 5 10.94 5 14 C3.35 14 1.7 14 0 14 C0 9.38 0 4.76 0 0 Z M17 3 C16.67 3.66 16.34 4.32 16 5 C17.65 5 19.3 5 21 5 C20.67 4.34 20.34 3.68 20 3 C19.01 3 18.02 3 17 3 Z " fill="#11142D" transform="translate(124,8)"/>
<path d="M0 0 C1.04736328 -0.00515625 2.09472656 -0.0103125 3.17382812 -0.015625 C4.26244141 -0.00015625 5.35105469 0.0153125 6.47265625 0.03125 C7.55740234 0.01578125 8.64214844 0.0003125 9.75976562 -0.015625 C17.63612742 0.02310327 17.63612742 0.02310327 21.76953125 2.359375 C23.53515625 4.53125 23.53515625 4.53125 23.84765625 7.78125 C23.74453125 8.68875 23.64140625 9.59625 23.53515625 10.53125 C22.21515625 10.86125 20.89515625 11.19125 19.53515625 11.53125 C19.25027344 10.71269531 18.96539062 9.89414063 18.671875 9.05078125 C16.84254426 6.36146062 16.84254426 6.36146062 14.41259766 6.11865234 C11.70995008 6.03829355 9.04872887 6.09691119 6.34765625 6.21875 C5.40728516 6.24130859 4.46691406 6.26386719 3.49804688 6.28710938 C1.17548152 6.34605773 -1.14388151 6.42827215 -3.46484375 6.53125 C-3.46484375 7.85125 -3.46484375 9.17125 -3.46484375 10.53125 C-2.50578125 10.6859375 -2.50578125 10.6859375 -1.52734375 10.84375 C-0.50640625 11.1840625 -0.50640625 11.1840625 0.53515625 11.53125 C0.86515625 12.52125 1.19515625 13.51125 1.53515625 14.53125 C1.20515625 15.19125 0.87515625 15.85125 0.53515625 16.53125 C-2.92153957 16.84549507 -4.86386052 16.91081836 -7.83984375 15.03125 C-9.80245833 12.01184296 -9.941005 10.05693024 -9.99609375 6.53125 C-8.62260579 1.36047179 -4.92693449 0.02333263 0 0 Z " fill="#5D87FF" transform="translate(25.46484375,-0.53125)"/>
<path d="M0 0 C0 1.65 0 3.3 0 5 C-2.64 4.67 -5.28 4.34 -8 4 C-8.33 4.66 -8.66 5.32 -9 6 C-7.906875 6.103125 -6.81375 6.20625 -5.6875 6.3125 C-2 7 -2 7 0 8.1875 C1 10 1 10 0.875 13.0625 C0 16 0 16 -3 18 C-5.41015625 18.23046875 -5.41015625 18.23046875 -8.0625 18.1875 C-8.94035156 18.18105469 -9.81820312 18.17460937 -10.72265625 18.16796875 C-13 18 -13 18 -15 17 C-15 15.35 -15 13.7 -15 12 C-10.05 12.99 -10.05 12.99 -5 14 C-5 13.34 -5 12.68 -5 12 C-6.27875 11.731875 -7.5575 11.46375 -8.875 11.1875 C-12.49675855 10.42809901 -12.80051868 10.29922197 -15 7 C-14.9375 4.5 -14.9375 4.5 -14 2 C-9.70159052 -2.02975889 -5.36065969 -0.96935676 0 0 Z " fill="#11142D" transform="translate(94,4)"/>
<path d="M0 0 C4.62 0 9.24 0 14 0 C14 5.34203818 13.89703018 5.73348606 10.5 9.3125 C9.8503125 10.00988281 9.200625 10.70726562 8.53125 11.42578125 C8.0259375 11.94527344 7.520625 12.46476562 7 13 C9.64 13.33 12.28 13.66 15 14 C15 15.32 15 16.64 15 18 C9.72 18 4.44 18 -1 18 C-1 12.65796182 -0.89703018 12.26651394 2.5 8.6875 C3.1496875 7.99011719 3.799375 7.29273438 4.46875 6.57421875 C4.9740625 6.05472656 5.479375 5.53523437 6 5 C3.03 4.505 3.03 4.505 0 4 C0 2.68 0 1.36 0 0 Z " fill="#11142D" transform="translate(63,4)"/>
<path d="M0 0 C0.7734375 -0.00773438 1.546875 -0.01546875 2.34375 -0.0234375 C5.01715766 0.47056174 5.9023044 1.1995214 7.5 3.375 C7.88673867 6.92010445 7.84672087 9.47352573 6.5625 12.8125 C3.63463409 15.03058023 1.19906049 14.93544045 -2.40234375 14.75390625 C-4.5 14.375 -4.5 14.375 -6.5625 12.8125 C-7.84672087 9.47352573 -7.88673867 6.92010445 -7.5 3.375 C-5.30993689 0.39293293 -3.62805871 -0.03628059 0 0 Z M-0.5 3.375 C-1.16 4.035 -1.82 4.695 -2.5 5.375 C-2.17958603 7.97780568 -2.17958603 7.97780568 -1.5 10.375 C-0.51 10.375 0.48 10.375 1.5 10.375 C1.83 8.725 2.16 7.075 2.5 5.375 C1.51 4.715 0.52 4.055 -0.5 3.375 Z " fill="#11142D" transform="translate(114.5,7.625)"/>
<path d="M0 0 C1.65 0 3.3 0 5 0 C5 1.32 5 2.64 5 4 C6.32 4 7.64 4 9 4 C9 5.32 9 6.64 9 8 C7.68 8 6.36 8 5 8 C5 9.98 5 11.96 5 14 C6.32 14 7.64 14 9 14 C9 15.32 9 16.64 9 18 C5.625 18.125 5.625 18.125 2 18 C0 16 0 16 -0.1953125 14.0546875 C-0.09765625 11.02734375 -0.09765625 11.02734375 0 8 C-0.66 8 -1.32 8 -2 8 C-2 6.68 -2 5.36 -2 4 C-1.34 4 -0.68 4 0 4 C0 2.68 0 1.36 0 0 Z " fill="#11142D" transform="translate(97,4)"/>
</svg>
