<?xml version="1.0" encoding="UTF-8"?>
<svg version="1.1" xmlns="http://www.w3.org/2000/svg" width="174" height="26">
<path d="M0 0 C4.95 0 9.9 0 15 0 C15 1.32 15 2.64 15 4 C15.7425 4.2475 16.485 4.495 17.25 4.75 C20.36067153 6.1639416 21.98183429 7.2343655 24 10 C24.72632441 15.91435595 24.72632441 15.91435595 22.86938477 18.68994141 C20.13460721 20.60646438 17.96635172 20.38864033 14.65234375 20.3984375 C13.40775391 20.40230469 12.16316406 20.40617187 10.88085938 20.41015625 C8.92889648 20.39275391 8.92889648 20.39275391 6.9375 20.375 C5.63232422 20.38660156 4.32714844 20.39820312 2.98242188 20.41015625 C1.73912109 20.40628906 0.49582031 20.40242188 -0.78515625 20.3984375 C-1.92863525 20.39505371 -3.07211426 20.39166992 -4.25024414 20.38818359 C-5.15766357 20.26008301 -6.06508301 20.13198242 -7 20 C-9.29013653 16.5647952 -9.17842973 15.014669 -9 11 C-6.525 11.495 -6.525 11.495 -4 12 C-3.67 12.99 -3.34 13.98 -3 15 C-2.34 15 -1.68 15 -1 15 C-0.938125 14.443125 -0.87625 13.88625 -0.8125 13.3125 C0.33373872 10.05012827 2.49390197 8.31332126 5 6 C2.525 5.01 2.525 5.01 0 4 C0 2.68 0 1.36 0 0 Z M12 6 C10.68 7.65 9.36 9.3 8 11 C10.31 11 12.62 11 15 11 C14.67 12.65 14.34 14.3 14 16 C15.32 16 16.64 16 18 16 C18.33 15.01 18.66 14.02 19 13 C17.27773504 9.75150023 17.27773504 9.75150023 14 9 C13.34 8.01 12.68 7.02 12 6 Z " fill="#5D87FF" transform="translate(30,6)"/>
<path d="M0 0 C1.04736328 -0.00515625 2.09472656 -0.0103125 3.17382812 -0.015625 C4.26244141 -0.00015625 5.35105469 0.0153125 6.47265625 0.03125 C7.55740234 0.01578125 8.64214844 0.0003125 9.75976562 -0.015625 C17.63612742 0.02310327 17.63612742 0.02310327 21.76953125 2.359375 C23.53515625 4.53125 23.53515625 4.53125 23.84765625 7.78125 C23.74453125 8.68875 23.64140625 9.59625 23.53515625 10.53125 C22.21515625 10.86125 20.89515625 11.19125 19.53515625 11.53125 C19.25027344 10.71269531 18.96539062 9.89414063 18.671875 9.05078125 C16.84254426 6.36146062 16.84254426 6.36146062 14.41259766 6.11865234 C11.70995008 6.03829355 9.04872887 6.09691119 6.34765625 6.21875 C5.40728516 6.24130859 4.46691406 6.26386719 3.49804688 6.28710938 C1.17548152 6.34605773 -1.14388151 6.42827215 -3.46484375 6.53125 C-3.46484375 7.85125 -3.46484375 9.17125 -3.46484375 10.53125 C-2.50578125 10.6859375 -2.50578125 10.6859375 -1.52734375 10.84375 C-0.50640625 11.1840625 -0.50640625 11.1840625 0.53515625 11.53125 C0.86515625 12.52125 1.19515625 13.51125 1.53515625 14.53125 C1.20515625 15.19125 0.87515625 15.85125 0.53515625 16.53125 C-2.92153957 16.84549507 -4.86386052 16.91081836 -7.83984375 15.03125 C-9.80245833 12.01184296 -9.941005 10.05693024 -9.99609375 6.53125 C-8.62260579 1.36047179 -4.92693449 0.02333263 0 0 Z " fill="#5D87FF" transform="translate(30.46484375,-0.53125)"/>
<path d="M0 0 C0 1.65 0 3.3 0 5 C-1.134375 4.814375 -2.26875 4.62875 -3.4375 4.4375 C-4.613125 4.293125 -5.78875 4.14875 -7 4 C-7.33 4.33 -7.66 4.66 -8 5 C-7.15115234 5.30744141 -7.15115234 5.30744141 -6.28515625 5.62109375 C-5.55167969 5.89050781 -4.81820312 6.15992188 -4.0625 6.4375 C-3.33160156 6.70433594 -2.60070312 6.97117187 -1.84765625 7.24609375 C0 8 0 8 1 9 C1.3125 11.875 1.3125 11.875 1 15 C-1.15230452 17.12756539 -2.49082474 17.93337894 -5.5078125 18.328125 C-6.37148437 18.30234375 -7.23515625 18.2765625 -8.125 18.25 C-8.99382812 18.23453125 -9.86265625 18.2190625 -10.7578125 18.203125 C-13 18 -13 18 -15 17 C-15 15.35 -15 13.7 -15 12 C-10.05 12.99 -10.05 12.99 -5 14 C-5 13.34 -5 12.68 -5 12 C-5.56589844 11.86722656 -6.13179687 11.73445312 -6.71484375 11.59765625 C-7.44832031 11.42105469 -8.18179688 11.24445312 -8.9375 11.0625 C-9.66839844 10.88847656 -10.39929688 10.71445313 -11.15234375 10.53515625 C-13 10 -13 10 -14 9 C-14.375 5.625 -14.375 5.625 -14 2 C-9.9477798 -2.18293698 -5.24300355 -0.94808125 0 0 Z " fill="#FFFFFF" transform="translate(99,4)"/>
<path d="M0 0 C4.62 0 9.24 0 14 0 C14 5.34203818 13.89703018 5.73348606 10.5 9.3125 C9.8503125 10.00988281 9.200625 10.70726562 8.53125 11.42578125 C8.0259375 11.94527344 7.520625 12.46476562 7 13 C9.64 13.33 12.28 13.66 15 14 C15 15.32 15 16.64 15 18 C9.72 18 4.44 18 -1 18 C-0.08160162 13.40800812 0.34001993 12.10508137 3.0625 8.6875 C3.61035156 7.99011719 4.15820312 7.29273438 4.72265625 6.57421875 C5.35494141 5.79498047 5.35494141 5.79498047 6 5 C3.03 4.505 3.03 4.505 0 4 C0 2.68 0 1.36 0 0 Z " fill="#FFFFFF" transform="translate(68,4)"/>
<path d="M0 0 C1.17755859 -0.01160156 1.17755859 -0.01160156 2.37890625 -0.0234375 C3.05824219 0.10804688 3.73757812 0.23953125 4.4375 0.375 C6.5894437 3.60291555 6.63836443 4.65900809 6.4375 8.375 C3.4675 8.375 0.4975 8.375 -2.5625 8.375 C-2.5625 9.035 -2.5625 9.695 -2.5625 10.375 C1.8925 9.88 1.8925 9.88 6.4375 9.375 C6.1075 11.025 5.7775 12.675 5.4375 14.375 C-3.58280277 15.14964432 -3.58280277 15.14964432 -7.25 12.25 C-8.87062984 8.70004893 -8.76405154 7.05975807 -7.5625 3.375 C-5.28694404 0.4153812 -3.6830001 -0.03640527 0 0 Z M-2.5625 3.375 C-2.5625 4.035 -2.5625 4.695 -2.5625 5.375 C-1.2425 5.045 0.0775 4.715 1.4375 4.375 C0.1175 4.045 -1.2025 3.715 -2.5625 3.375 Z " fill="#FFFFFF" transform="translate(148.5625,7.625)"/>
<path d="M0 0 C2.66997103 0.53689635 3.5713583 1.2356779 5.15625 3.43359375 C5.86765218 6.89296122 5.74120415 10.26368544 4.15625 13.43359375 C0.8932973 15.0650701 -2.32934179 15.06293445 -5.84375 14.43359375 C-8.34375 12.80859375 -8.34375 12.80859375 -9.84375 10.43359375 C-10.32217171 7.15298774 -10.12027573 5.13412561 -8.90625 2.05859375 C-6.00088977 -0.23047795 -3.61097676 -0.00601829 0 0 Z M-2.84375 3.43359375 C-3.50375 4.09359375 -4.16375 4.75359375 -4.84375 5.43359375 C-4.67867354 8.00899588 -4.67867354 8.00899588 -3.84375 10.43359375 C-3.18375 10.76359375 -2.52375 11.09359375 -1.84375 11.43359375 C-1.18375 11.10359375 -0.52375 10.77359375 0.15625 10.43359375 C0.15625 8.45359375 0.15625 6.47359375 0.15625 4.43359375 C-0.83375 4.10359375 -1.82375 3.77359375 -2.84375 3.43359375 Z " fill="#FFFFFF" transform="translate(121.84375,7.56640625)"/>
<path d="M0 0 C1.65 0 3.3 0 5 0 C5 1.32 5 2.64 5 4 C6.32 4 7.64 4 9 4 C9 5.32 9 6.64 9 8 C7.68 8 6.36 8 5 8 C5 9.98 5 11.96 5 14 C6.32 14 7.64 14 9 14 C9 15.32 9 16.64 9 18 C5.625 18.1875 5.625 18.1875 2 18 C-0.14301261 14.78548108 -0.37613434 13.32440968 -0.6875 9.5625 C-0.81705078 8.14130859 -0.81705078 8.14130859 -0.94921875 6.69140625 C-0.99598469 4.21281124 -0.73870763 2.34942352 0 0 Z " fill="#FFFFFF" transform="translate(102,4)"/>
<path d="M0 0 C3.3 0 6.6 0 10 0 C10 1.65 10 3.3 10 5 C8.35 5 6.7 5 5 5 C5 7.97 5 10.94 5 14 C3.35 14 1.7 14 0 14 C0 9.38 0 4.76 0 0 Z " fill="#FFFFFF" transform="translate(130,8)"/>
</svg>
